<?xml version="1.0" encoding="UTF-8"?>
<svg version="1.1" xmlns="http://www.w3.org/2000/svg" width="200" height="200">
<path d="M0 0 C1.28777344 1.09248047 1.28777344 1.09248047 2.6015625 2.20703125 C3.39820313 2.84253906 4.19484375 3.47804688 5.015625 4.1328125 C21.39835146 17.72878652 32.01495222 39.17788967 34.6015625 60.20703125 C36.156079 86.28411384 31.3210512 110.89496756 13.52294922 131.03198242 C11.27338861 133.48517038 8.95366219 135.85145213 6.6015625 138.20703125 C5.95703125 138.86316406 5.3125 139.51929688 4.6484375 140.1953125 C-4.56938546 148.91216682 -16.61058003 154.83871908 -28.3984375 159.20703125 C-29.0584375 158.54703125 -29.7184375 157.88703125 -30.3984375 157.20703125 C-29.61339844 156.84351563 -28.82835938 156.48 -28.01953125 156.10546875 C-21.64450538 153.05484287 -16.60441389 149.96031404 -11.3984375 145.20703125 C-10.7384375 145.20703125 -10.0784375 145.20703125 -9.3984375 145.20703125 C-9.058125 144.40265625 -9.058125 144.40265625 -8.7109375 143.58203125 C-7.3984375 141.20703125 -7.3984375 141.20703125 -5.1484375 138.58203125 C6.64807105 124.66909028 11.35025566 107.18322551 10.48046875 89.18359375 C9.1122861 75.72744682 4.08244301 63.73944225 -4.3984375 53.20703125 C-5.543125 51.73943359 -5.543125 51.73943359 -6.7109375 50.2421875 C-9.37969054 47.06811439 -12.45721611 44.59030037 -15.8359375 42.20703125 C-16.43849365 41.77914307 -17.0410498 41.35125488 -17.66186523 40.91040039 C-29.26315009 32.95132697 -40.49742813 30.02270325 -54.4609375 29.95703125 C-55.53021484 29.93640625 -56.59949219 29.91578125 -57.70117188 29.89453125 C-75.00727508 29.81087637 -89.82541067 36.32530487 -102.3984375 48.20703125 C-117.10441381 63.768628 -121.25139253 80.82703835 -120.75390625 101.64453125 C-120.42795591 108.60127638 -119.01211938 114.72256791 -116.3984375 121.20703125 C-116.09808594 121.95597656 -115.79773438 122.70492187 -115.48828125 123.4765625 C-110.75706955 133.86065051 -103.35023103 143.86614064 -93.5859375 149.83203125 C-92.97153809 150.21738037 -92.35713867 150.60272949 -91.72412109 150.99975586 C-87.4026927 153.67858598 -83.02063607 156.08081991 -78.3984375 158.20703125 C-83.89510779 160.03925468 -89.3468031 156.57780606 -94.3984375 154.20703125 C-104.74559965 148.99719617 -113.28599462 142.43009835 -121.3984375 134.20703125 C-122.06359375 133.54058594 -122.72875 132.87414062 -123.4140625 132.1875 C-138.75093268 115.77981231 -146.57933567 92.45750637 -146.3984375 70.20703125 C-145.50982239 49.00144338 -138.23149109 29.40670365 -124.3984375 13.20703125 C-123.97691406 12.64242187 -123.55539063 12.0778125 -123.12109375 11.49609375 C-110.19708243 -5.23834036 -87.3895426 -15.79323973 -66.85546875 -18.47265625 C-42.88709635 -20.6934546 -18.95900708 -15.32911454 0 0 Z " fill="#567AEF" transform="translate(153.3984375,29.79296875)"/>
<path d="M0 0 C10.13818639 10.72823956 14.96309278 23.58779948 14.78637695 38.29980469 C14.067877 54.089063 6.48426611 66.18830664 -4.9375 76.75 C-6.52540456 78.10265944 -8.12768248 79.43881186 -9.75 80.75 C-10.60078125 81.44609375 -10.60078125 81.44609375 -11.46875 82.15625 C-15.04022603 84.81585981 -18.3700923 85.39960738 -22.75 85.75 C-22.09 84.1 -21.43 82.45 -20.75 80.75 C-20.09 80.75 -19.43 80.75 -18.75 80.75 C-18.255 79.265 -18.255 79.265 -17.75 77.75 C-17.09 77.42 -16.43 77.09 -15.75 76.75 C-12.14904623 69.34987482 -11.63943618 61.90218058 -13.9375 54.0625 C-16.61886394 46.90388185 -20.9683577 43.07916986 -27.75 39.75 C-34.33098706 37.72611192 -41.5603634 37.95613406 -47.87109375 40.72265625 C-54.22865234 44.19882654 -57.70595455 48.22211769 -60.08984375 55.10546875 C-62.09710947 63.14640893 -60.93826478 69.6553333 -56.75 76.75 C-54.85941363 79.51210057 -52.868095 82.15886378 -50.75 84.75 C-52.75 85.75 -52.75 85.75 -55.6875 84.8125 C-69.82531482 78.30321442 -79.6071714 66.81209682 -85.75 52.75 C-89.82182145 40.39286554 -88.8770052 26.61310127 -83.75 14.75 C-77.2035884 1.83653054 -68.31233738 -7.08294664 -54.5625 -12.1875 C-34.97520188 -18.4902384 -15.0664888 -14.28545008 0 0 Z " fill="#567AEE" transform="translate(134.75,105.25)"/>
<path d="M0 0 C1.20785156 -0.01224609 2.41570312 -0.02449219 3.66015625 -0.03710938 C13.43525639 -0.05306438 21.0699438 0.94164476 29.875 5.3125 C34.24108057 7.57832325 34.24108057 7.57832325 39 8.1875 C40.6875 9.5 40.6875 9.5 42 11.1875 C42 12.1775 42 13.1675 42 14.1875 C42.556875 14.414375 43.11375 14.64125 43.6875 14.875 C53.2591737 20.30757156 60.76376847 32.31647246 65 42.1875 C65.75 45.1875 65.75 45.1875 66 47.1875 C65.01 47.6825 65.01 47.6825 64 48.1875 C63.72027344 47.43726563 63.44054687 46.68703125 63.15234375 45.9140625 C60.27782411 38.57525673 56.86063246 32.38686598 52 26.1875 C51.23558594 25.20523438 50.47117187 24.22296875 49.68359375 23.2109375 C47.01495615 20.04337632 43.93710571 17.56786602 40.5625 15.1875 C39.95994385 14.75961182 39.3573877 14.33172363 38.73657227 13.89086914 C27.13528741 5.93179572 15.90100937 3.003172 1.9375 2.9375 C0.86822266 2.916875 -0.20105469 2.89625 -1.30273438 2.875 C-18.60883758 2.79134512 -33.42697317 9.30577362 -46 21.1875 C-60.70597631 36.74909675 -64.85295503 53.8075071 -64.35546875 74.625 C-64.02951841 81.58174513 -62.61368188 87.70303666 -60 94.1875 C-59.69964844 94.93644531 -59.39929688 95.68539062 -59.08984375 96.45703125 C-54.35863205 106.84111926 -46.95179353 116.84660939 -37.1875 122.8125 C-36.57310059 123.19784912 -35.95870117 123.58319824 -35.32568359 123.98022461 C-31.0042552 126.65905473 -26.62219857 129.06128866 -22 131.1875 C-27.49667029 133.01972343 -32.9483656 129.55827481 -38 127.1875 C-54.15008483 119.05587151 -67.91688613 106.92598303 -77 91.1875 C-76.01 90.1975 -76.01 90.1975 -75 89.1875 C-74.67 90.5075 -74.34 91.8275 -74 93.1875 C-73.34 93.1875 -72.68 93.1875 -72 93.1875 C-71.566875 94.156875 -71.13375 95.12625 -70.6875 96.125 C-69.2985139 99.46481765 -69.2985139 99.46481765 -66 100.1875 C-65.30062468 101.50397119 -64.63270867 102.83772151 -64 104.1875 C-63.34 104.5175 -62.68 104.8475 -62 105.1875 C-62 106.1775 -62 107.1675 -62 108.1875 C-61.34 108.1875 -60.68 108.1875 -60 108.1875 C-60 108.8475 -60 109.5075 -60 110.1875 C-59.34 110.1875 -58.68 110.1875 -58 110.1875 C-58 110.8475 -58 111.5075 -58 112.1875 C-56.35 112.8475 -54.7 113.5075 -53 114.1875 C-53 114.8475 -53 115.5075 -53 116.1875 C-52.01 116.1875 -51.02 116.1875 -50 116.1875 C-51.80412643 112.92289027 -52.83394693 111.29820205 -56 109.1875 C-57.02734375 107.49853516 -57.02734375 107.49853516 -57.9375 105.4765625 C-58.27394531 104.73325684 -58.61039063 103.98995117 -58.95703125 103.22412109 C-67.37155631 83.76750159 -71.32393236 62.89310182 -63.421875 42.40234375 C-61.6179632 38.323719 -59.62201711 34.78005479 -57 31.1875 C-56.53722656 30.44113281 -56.07445313 29.69476563 -55.59765625 28.92578125 C-52.43675113 23.8532412 -49.04909629 19.50584937 -44 16.1875 C-43.34 16.1875 -42.68 16.1875 -42 16.1875 C-41.67 15.1975 -41.34 14.2075 -41 13.1875 C-38.4375 12 -38.4375 12 -36 11.1875 C-36 10.1975 -36 9.2075 -36 8.1875 C-32.38026598 6.87123308 -29.90432869 6.1875 -26 6.1875 C-26 5.5275 -26 4.8675 -26 4.1875 C-22.0254058 2.38086627 -18.30982872 1.76766925 -14 1.1875 C-11.34587455 -1.46662545 -3.5689758 0.00185691 0 0 Z " fill="#576EC0" transform="translate(97,56.8125)"/>
<path d="M0 0 C6.44002442 0.80071352 10.21031055 4.9302332 15 9 C15.69609375 9.54914062 16.3921875 10.09828125 17.109375 10.6640625 C33.24543222 23.76654096 43.48958295 45.59030942 46 66 C47.5545165 92.07708259 42.7194887 116.68793631 24.92138672 136.82495117 C22.67182611 139.27813913 20.35209969 141.64442088 18 144 C17.35546875 144.65613281 16.7109375 145.31226563 16.046875 145.98828125 C6.82905204 154.70513557 -5.21214253 160.63168783 -17 165 C-17.66 164.34 -18.32 163.68 -19 163 C-18.21496094 162.63648438 -17.42992188 162.27296875 -16.62109375 161.8984375 C-10.24606788 158.84781162 -5.20597639 155.75328279 0 151 C0.66 151 1.32 151 2 151 C2.3403125 150.195625 2.3403125 150.195625 2.6875 149.375 C4 147 4 147 6.25 144.375 C12.14174536 137.45784763 15.92953436 129.48893443 19 121 C19.99 121.33 20.98 121.66 22 122 C22.20086443 125.71599191 22.1519437 126.77208445 20 130 C20.66 130 21.32 130 22 130 C22.66 128.02 23.32 126.04 24 124 C24.99 124.33 25.98 124.66 27 125 C29.29862013 125 30.95285584 122.78958756 32.6328125 121.37890625 C34.3003668 119.69705862 34.82539058 118.35722722 35 116 C35.66 116 36.32 116 37 116 C37.1134375 115.360625 37.226875 114.72125 37.34375 114.0625 C38.39070734 109.1766991 39.81855743 104.39867785 41.18359375 99.59375 C43.8245508 90.21757113 44.20721365 81.68784766 44 72 C43.98324219 71.03320312 43.96648437 70.06640625 43.94921875 69.0703125 C43.25967674 56.10692267 38.15377539 42.73066309 31 32 C31 31.01 31 30.02 31 29 C30.01 28.67 29.02 28.34 28 28 C25 23.66666667 25 23.66666667 25 21 C24.34 21 23.68 21 23 21 C23 20.34 23 19.68 23 19 C22.01 18.67 21.02 18.34 20 18 C19.71125 17.195625 19.4225 16.39125 19.125 15.5625 C18.24363581 12.78577272 18.24363581 12.78577272 15.5625 11.875 C14.2940625 11.441875 14.2940625 11.441875 13 11 C11.375 9.5 11.375 9.5 10 8 C7.09791688 6.00833085 7.09791688 6.00833085 4.3125 4.5 C3.549375 4.005 2.78625 3.51 2 3 C2 2.34 2 1.68 2 1 C1.34 0.67 0.68 0.34 0 0 Z " fill="#5478EB" transform="translate(142,24)"/>
<path d="M0 0 C10.13818639 10.72823956 14.96309278 23.58779948 14.78637695 38.29980469 C14.14073697 52.48794262 8.02248109 64.18341244 -2.109375 74.046875 C-3.94940638 75.6781085 -5.80580348 77.24549915 -7.75 78.75 C-7.75 74.67092669 -6.18302134 73.69256832 -3.4375 70.75 C-2.63699219 69.88375 -1.83648437 69.0175 -1.01171875 68.125 C0.28865701 66.75949315 1.61360518 65.41480148 3 64.13671875 C4.95600321 61.96677769 4.93621858 59.57403277 5.25 56.75 C6.57 56.42 7.89 56.09 9.25 55.75 C9.20875 54.88375 9.1675 54.0175 9.125 53.125 C9.25 49.75 9.25 49.75 10.23046875 47.07421875 C13.76324333 35.55547865 11.52468061 23.29936123 6.25 12.75 C5.76660156 11.69039062 5.76660156 11.69039062 5.2734375 10.609375 C3.22925222 6.52100444 0.4499554 3.89740339 -3.06640625 1.109375 C-4.75 -0.25 -4.75 -0.25 -6.19921875 -1.765625 C-7.99767245 -3.48706683 -9.8159066 -4.55867633 -12 -5.75 C-12.72703125 -6.1521875 -13.4540625 -6.554375 -14.203125 -6.96875 C-20.68962165 -10.23189556 -25.62573423 -11.81536537 -32.875 -12.125 C-33.70451172 -12.16544434 -34.53402344 -12.20588867 -35.38867188 -12.24755859 C-43.69520319 -12.51255814 -50.87681596 -10.87439468 -58.75 -8.25 C-58.75 -8.91 -58.75 -9.57 -58.75 -10.25 C-37.84691911 -18.51132792 -16.68919421 -15.82403532 0 0 Z " fill="#5167BB" transform="translate(134.75,105.25)"/>
<path d="M0 0 C6.44002442 0.80071352 10.21031055 4.9302332 15 9 C16.04414063 9.82371094 16.04414063 9.82371094 17.109375 10.6640625 C33.24543222 23.76654096 43.48958295 45.59030942 46 66 C47.45773102 90.45350184 43.19926405 111.67500971 29 132 C27.70436424 133.36999399 26.38319417 134.71846598 25 136 C25.375 133.5625 25.375 133.5625 26 131 C26.66 130.67 27.32 130.34 28 130 C27.87625 129.278125 27.7525 128.55625 27.625 127.8125 C28.18047452 123.6464411 30.80931789 122.5395225 34 120 C34.94436349 117.83468832 34.94436349 117.83468832 35 116 C35.66 116 36.32 116 37 116 C37.1134375 115.360625 37.226875 114.72125 37.34375 114.0625 C38.39070734 109.1766991 39.81855743 104.39867785 41.18359375 99.59375 C43.8245508 90.21757113 44.20721365 81.68784766 44 72 C43.98324219 71.03320312 43.96648437 70.06640625 43.94921875 69.0703125 C43.25967674 56.10692267 38.15377539 42.73066309 31 32 C31 31.01 31 30.02 31 29 C30.01 28.67 29.02 28.34 28 28 C25 23.66666667 25 23.66666667 25 21 C24.34 21 23.68 21 23 21 C23 20.34 23 19.68 23 19 C22.01 18.67 21.02 18.34 20 18 C19.71125 17.195625 19.4225 16.39125 19.125 15.5625 C18.24363581 12.78577272 18.24363581 12.78577272 15.5625 11.875 C14.2940625 11.441875 14.2940625 11.441875 13 11 C11.375 9.5 11.375 9.5 10 8 C7.09791688 6.00833085 7.09791688 6.00833085 4.3125 4.5 C3.549375 4.005 2.78625 3.51 2 3 C2 2.34 2 1.68 2 1 C1.34 0.67 0.68 0.34 0 0 Z " fill="#5263B4" transform="translate(142,24)"/>
<path d="M0 0 C1 3 1 3 0.07421875 4.9453125 C-0.38339844 5.66460937 -0.84101562 6.38390625 -1.3125 7.125 C-7.03621563 17.0620063 -7.7950435 30.21771108 -5.25 41.375 C-4.63125 43.169375 -4.63125 43.169375 -4 45 C-3.74347656 45.79664063 -3.48695312 46.59328125 -3.22265625 47.4140625 C-1.21405022 53.1209174 1.38690707 57.07733329 5.609375 61.40625 C7 63 7 63 7 65 C7.7425 65.28875 8.485 65.5775 9.25 65.875 C10.1575 66.24625 11.065 66.6175 12 67 C12.7425 67.28875 13.485 67.5775 14.25 67.875 C16 69 16 69 16.75 71.125 C16.8325 71.74375 16.915 72.3625 17 73 C18.32 73.33 19.64 73.66 21 74 C20.071875 73.01 20.071875 73.01 19.125 72 C14.82942865 65.93566397 14.07911141 58.28585387 15 51 C15.66 50.34 16.32 49.68 17 49 C17.02578125 49.76183594 17.0515625 50.52367187 17.078125 51.30859375 C17.68759731 62.40376009 21.02758518 69.47041253 28 78 C26 79 26 79 23.0625 78.0625 C8.92468518 71.55321442 -0.8571714 60.06209682 -7 46 C-11.07019822 33.64779172 -10.12804222 19.86166955 -5 8 C-3.48086245 5.15968617 -1.86233281 2.63830481 0 0 Z " fill="#5668BA" transform="translate(56,112)"/>
<path d="M0 0 C0.66 1.32 1.32 2.64 2 4 C2.66 4 3.32 4 4 4 C4.433125 4.969375 4.86625 5.93875 5.3125 6.9375 C6.7014861 10.27731765 6.7014861 10.27731765 10 11 C10.69937532 12.31647119 11.36729133 13.65022151 12 15 C12.66 15.33 13.32 15.66 14 16 C14 16.99 14 17.98 14 19 C14.66 19 15.32 19 16 19 C16 19.66 16 20.32 16 21 C16.66 21 17.32 21 18 21 C18 21.66 18 22.32 18 23 C19.65 23.66 21.3 24.32 23 25 C23 25.66 23 26.32 23 27 C23.99 27 24.98 27 26 27 C24.19587357 23.73539027 23.16605307 22.11070205 20 20 C19.3125 17.375 19.3125 17.375 19 15 C22.41323365 16.13774455 22.92000521 16.90303122 24.9375 19.75 C25.95371125 21.16998586 26.9749014 22.58641661 28 24 C28.87591797 25.22783203 28.87591797 25.22783203 29.76953125 26.48046875 C32.41760946 29.47173047 35.38122876 31.48597751 38.75 33.5625 C39.36891113 33.95236084 39.98782227 34.34222168 40.62548828 34.74389648 C44.96283741 37.44467064 49.35464431 39.86313638 54 42 C48.50332971 43.83222343 43.0516344 40.37077481 38 38 C22.92562838 30.40999716 6.12027416 17.7981083 -1 2 C-0.67 1.34 -0.34 0.68 0 0 Z " fill="#4F67C0" transform="translate(21,146)"/>
<path d="M0 0 C0.66 0.33 1.32 0.66 2 1 C-9.26886603 13.32312585 -24.23539136 25.43902108 -41 29 C-41.33 28.34 -41.66 27.68 -42 27 C-41.21496094 26.63648438 -40.42992188 26.27296875 -39.62109375 25.8984375 C-33.24606788 22.84781162 -28.20597639 19.75328279 -23 15 C-22.34 15 -21.68 15 -21 15 C-20.773125 14.443125 -20.54625 13.88625 -20.3125 13.3125 C-18.64103234 10.36753316 -16.44723648 8.31843456 -14 6 C-13.34 6.33 -12.68 6.66 -12 7 C-14 10 -14 10 -16 12 C-14.68 12 -13.36 12 -12 12 C-12 11.34 -12 10.68 -12 10 C-11.01 9.67 -10.02 9.34 -9 9 C-8.67 8.34 -8.34 7.68 -8 7 C-7.34 7 -6.68 7 -6 7 C-5.7525 6.401875 -5.505 5.80375 -5.25 5.1875 C-3.83629988 2.71352479 -2.34944617 1.56629745 0 0 Z " fill="#4F6DCA" transform="translate(165,160)"/>
<path d="M0 0 C-0.66 0.66 -1.32 1.32 -2 2 C-2.76441406 1.61328125 -3.52882813 1.2265625 -4.31640625 0.828125 C-23.06906596 -8.28869151 -41.59925491 -10.66456522 -62 -6 C-63.95683896 -5.59684402 -65.91486106 -5.19929299 -67.875 -4.8125 C-68.75929688 -4.63332031 -69.64359375 -4.45414063 -70.5546875 -4.26953125 C-73.02476239 -3.9972706 -74.65704055 -4.23172725 -77 -5 C-50.74237112 -14.74607487 -24.81487833 -12.33812386 0 0 Z " fill="#5D71B8" transform="translate(142,22)"/>
<path d="M0 0 C-2 2 -2 2 -5.75 3.3125 C-8.70922998 4.35944779 -10.79189548 5.46394038 -13.125 7.5625 C-16.06993616 10.0592937 -18.30220962 11.03153109 -22 12 C-22 12.66 -22 13.32 -22 14 C-22.66 14 -23.32 14 -24 14 C-24.268125 15.093125 -24.53625 16.18625 -24.8125 17.3125 C-25.87663739 20.61692663 -26.34654664 21.94960422 -29 24 C-29.99 23.34 -30.98 22.68 -32 22 C-32.33 22.99 -32.66 23.98 -33 25 C-34.62332967 26.38576923 -36.28724465 27.72641268 -38 29 C-38.33 28.01 -38.66 27.02 -39 26 C-32.60579911 17.95760447 -11.54918581 -4.75229655 0 0 Z " fill="#6174CB" transform="translate(66,19)"/>
<path d="M0 0 C2.875 2.4375 2.875 2.4375 5 5 C5.721875 5.86625 6.44375 6.7325 7.1875 7.625 C10.05730106 11.38542898 11.25588701 13.26609036 11 18 C8.26091559 16.63045779 8.06809996 15.1033527 6.875 12.3125 C3.73102277 5.82978588 -0.47810409 2.684385 -6.875 -0.375 C-14.27325843 -1.85465169 -21.29927516 -1.70559835 -28 2 C-33.21574999 5.51983128 -36.20406387 9.40812775 -39 15 C-39.6875 13.3125 -39.6875 13.3125 -40 11 C-38.11382309 6.91328336 -35.4025401 3.91646295 -32 1 C-29.1875 0.1875 -29.1875 0.1875 -27 0 C-27 -0.66 -27 -1.32 -27 -2 C-17.45447625 -5.32018218 -8.95064688 -4.91408064 0 0 Z " fill="#5469BC" transform="translate(113,145)"/>
<path d="M0 0 C0.99 0.33 1.98 0.66 3 1 C3.25 3.25 3.25 3.25 3 6 C1.125 8.0625 1.125 8.0625 -1 10 C-3.13979463 12.85305951 -3.04033389 14.83101959 -2.625 18.25 C-2.41875 19.4875 -2.2125 20.725 -2 22 C-2.66 22 -3.32 22 -4 22 C-4.33 22.99 -4.66 23.98 -5 25 C-5.99 25 -6.98 25 -8 25 C-8 25.66 -8 26.32 -8 27 C-9.32 27 -10.64 27 -12 27 C-11 24 -11 24 -9 22 C-9.33 21.34 -9.66 20.68 -10 20 C-8.92578125 17.96875 -8.92578125 17.96875 -7.3125 15.5 C-4.20480704 10.53058888 -1.98948897 5.50035187 0 0 Z " fill="#6075D1" transform="translate(161,145)"/>
<path d="M0 0 C0.66 0 1.32 0 2 0 C2.41640288 7.2484945 1.44166784 13.16914355 -1 20 C-0.34 20.33 0.32 20.66 1 21 C-1.88406243 24.40843742 -3.3708265 25.86591384 -7.8125 26.8125 C-9.3903125 26.9053125 -9.3903125 26.9053125 -11 27 C-10.34 25.35 -9.68 23.7 -9 22 C-8.34 22 -7.68 22 -7 22 C-6.67 21.01 -6.34 20.02 -6 19 C-5.34 18.67 -4.68 18.34 -4 18 C-1.31424515 12.24297525 -0.497626 6.27008755 0 0 Z " fill="#5062B9" transform="translate(123,164)"/>
<path d="M0 0 C6.44002442 0.80071352 10.21031055 4.9302332 15 9 C16.04414063 9.82371094 16.04414063 9.82371094 17.109375 10.6640625 C23.17221694 15.58709016 27.51060013 21.67119324 32 28 C31.01 28.33 30.02 28.66 29 29 C25 23.25 25 23.25 25 21 C24.34 21 23.68 21 23 21 C23 20.34 23 19.68 23 19 C22.01 18.67 21.02 18.34 20 18 C19.71125 17.195625 19.4225 16.39125 19.125 15.5625 C18.24363581 12.78577272 18.24363581 12.78577272 15.5625 11.875 C14.2940625 11.441875 14.2940625 11.441875 13 11 C11.375 9.5 11.375 9.5 10 8 C7.09791688 6.00833085 7.09791688 6.00833085 4.3125 4.5 C3.549375 4.005 2.78625 3.51 2 3 C2 2.34 2 1.68 2 1 C1.34 0.67 0.68 0.34 0 0 Z " fill="#5B72C8" transform="translate(142,24)"/>
<path d="M0 0 C3.81748117 1.75755321 7.24931078 4.07102752 10.75 6.375 C15.70196432 9.60260809 20.61963733 12.52503317 26 15 C20.529152 16.823616 15.06373812 13.26837138 10 11 C6.57029658 9.13716616 3.26158478 7.14248571 0 5 C0.66 4.67 1.32 4.34 2 4 C1.34 2.68 0.68 1.36 0 0 Z " fill="#4A68B3" transform="translate(49,173)"/>
<path d="M0 0 C0.66 0 1.32 0 2 0 C-0.57144002 14.1429201 -7.28639885 26.6723185 -16 38 C-16.495 36.515 -16.495 36.515 -17 35 C-16.2575 34.4121875 -16.2575 34.4121875 -15.5 33.8125 C-13.71598375 32.08500233 -13.71598375 32.08500233 -14.1875 29.625 C-14 27 -14 27 -11.0625 24.4375 C-10.051875 23.633125 -9.04125 22.82875 -8 22 C-7.05563651 19.83468832 -7.05563651 19.83468832 -7 18 C-6.34 18 -5.68 18 -5 18 C-4.81630859 16.97326172 -4.81630859 16.97326172 -4.62890625 15.92578125 C-3.91575403 12.60807311 -2.95146135 9.42563463 -1.9375 6.1875 C-1.57527344 5.02605469 -1.21304688 3.86460938 -0.83984375 2.66796875 C-0.56269531 1.78753906 -0.28554687 0.90710938 0 0 Z " fill="#596EBD" transform="translate(184,122)"/>
<path d="M0 0 C0.33 0 0.66 0 1 0 C1.18175781 1.18335937 1.36351562 2.36671875 1.55078125 3.5859375 C3.24294434 14.33481219 4.99646638 24.23119627 10 34 C10 34.99 10 35.98 10 37 C10.66 37 11.32 37 12 37 C12 38.65 12 40.3 12 42 C3.8030838 34.84848761 0.50303998 18.08248352 -0.24609375 7.53515625 C-0.24934656 5.00772429 -0.19215575 2.51937534 0 0 Z " fill="#586FBF" transform="translate(8,104)"/>
<path d="M0 0 C0.8971875 0.4021875 0.8971875 0.4021875 1.8125 0.8125 C2.8025 0.8125 3.7925 0.8125 4.8125 0.8125 C-2.46583257 6.04211674 -10.32550487 10.89136819 -19.1875 12.8125 C-19.5175 12.1525 -19.8475 11.4925 -20.1875 10.8125 C-19.39085938 10.43738281 -18.59421875 10.06226563 -17.7734375 9.67578125 C-10.81519166 6.42009177 -10.81519166 6.42009177 -4.6875 1.875 C-2.1875 -0.1875 -2.1875 -0.1875 0 0 Z " fill="#485BAF" transform="translate(143.1875,176.1875)"/>
<path d="M0 0 C0 0.33 0 0.66 0 1 C-0.96679688 1.04898437 -1.93359375 1.09796875 -2.9296875 1.1484375 C-10.44915585 1.58024855 -17.6459945 2.33404406 -25 4 C-26.95563562 4.40895329 -28.91409079 4.80463118 -30.875 5.1875 C-31.75929688 5.36667969 -32.64359375 5.54585937 -33.5546875 5.73046875 C-36.02476239 6.0027294 -37.65704055 5.76827275 -40 5 C-26.33537677 -0.07191421 -14.3797311 -1.47178437 0 0 Z " fill="#546ABD" transform="translate(105,12)"/>
<path d="M0 0 C0.66 0.33 1.32 0.66 2 1 C2.42865923 3.56289923 2.70938053 5.9794123 2.875 8.5625 C2.92325928 9.28888672 2.97151855 10.01527344 3.02124023 10.76367188 C3.26607858 16.5566641 2.3333659 20.15146778 -1 25 C-1.33 25 -1.66 25 -2 25 C-1.85756403 22.33311371 -1.71113422 19.66654233 -1.5625 17 C-1.50352539 15.88431641 -1.50352539 15.88431641 -1.44335938 14.74609375 C-1.16338273 9.79266082 -0.66489429 4.91686531 0 0 Z " fill="#5D74D0" transform="translate(165,119)"/>
<path d="M0 0 C1.9801217 1.9801217 2.68572203 3.30481966 3.8125 5.8125 C5.63714787 9.60639048 7.92975061 12.10032002 11 15 C11 15.66 11 16.32 11 17 C12.11375 17.433125 12.11375 17.433125 13.25 17.875 C15.56739797 18.82302644 17.77917115 19.84845911 20 21 C20 21.66 20 22.32 20 23 C14.07142471 22.15892185 10.98671801 19.31016872 7 15 C0 5.63584906 0 5.63584906 0 0 Z " fill="#4F65C2" transform="translate(52,160)"/>
<path d="M0 0 C0.33 0 0.66 0 1 0 C1.19104256 4.58502155 0.75412125 8.14301168 -0.48828125 12.6015625 C-1.56560075 17.65098368 -1.70199299 22.85545798 -2 28 C-2.66 28 -3.32 28 -4 28 C-4.67886067 18.04337678 -2.69430667 9.47818596 0 0 Z " fill="#5E71C5" transform="translate(12,72)"/>
<path d="M0 0 C0.33 0.66 0.66 1.32 1 2 C-0.32 3.65 -1.64 5.3 -3 7 C-3.99 6.34 -4.98 5.68 -6 5 C-6.33 5.99 -6.66 6.98 -7 8 C-8.62332967 9.38576923 -10.28724465 10.72641268 -12 12 C-12.33 11.01 -12.66 10.02 -13 9 C-11.14349302 5.63882406 -8.55273548 2.71141267 -5.0390625 1.1015625 C-3.125 0.5625 -3.125 0.5625 0 0 Z " fill="#5974DA" transform="translate(40,36)"/>
<path d="M0 0 C1 3 1 3 0.07421875 4.9453125 C-0.38339844 5.66460937 -0.84101562 6.38390625 -1.3125 7.125 C-3.61821078 11.04216059 -4.77848742 14.467146 -5.59765625 18.9140625 C-6.13576773 21.70388316 -7.04146889 24.32980619 -8 27 C-8.33 27 -8.66 27 -9 27 C-8.76258491 17.43864686 -6.18462138 7.48664694 0 0 Z " fill="#5A70BF" transform="translate(56,112)"/>
<path d="M0 0 C0.66 0 1.32 0 2 0 C1.625 1.9375 1.625 1.9375 1 4 C0.01 4.495 0.01 4.495 -1 5 C-1.65213292 7.02463255 -1.65213292 7.02463255 -2 9 C-2.66 9 -3.32 9 -4 9 C-4.226875 9.804375 -4.45375 10.60875 -4.6875 11.4375 C-6.33631588 15.91285739 -8.60544412 19.88721318 -11 24 C-11.33 23.34 -11.66 22.68 -12 22 C-10.84843228 19.34574055 -9.63872898 16.81511533 -8.3125 14.25 C-7.95994141 13.54617187 -7.60738281 12.84234375 -7.24414062 12.1171875 C-5.08780015 7.87546475 -2.85076583 3.81702541 0 0 Z " fill="#516EBE" transform="translate(25,48)"/>
<path d="M0 0 C0.66 0.33 1.32 0.66 2 1 C0.25311063 2.77399627 -1.49733451 4.54422553 -3.25 6.3125 C-3.74113281 6.81201172 -4.23226562 7.31152344 -4.73828125 7.82617188 C-7.34377844 10.44903904 -9.88973061 12.9838298 -13 15 C-13.66 15 -14.32 15 -15 15 C-15 14.01 -15 13.02 -15 12 C-14.01 12 -13.02 12 -12 12 C-12 11.34 -12 10.68 -12 10 C-11.01 9.67 -10.02 9.34 -9 9 C-8.67 8.34 -8.34 7.68 -8 7 C-7.34 7 -6.68 7 -6 7 C-5.7525 6.401875 -5.505 5.80375 -5.25 5.1875 C-3.83629988 2.71352479 -2.34944617 1.56629745 0 0 Z " fill="#5267BF" transform="translate(165,160)"/>
<path d="M0 0 C5.99932374 1.8331267 11.44920563 4.07321751 17 7 C12.98817226 8.33727591 11.27830293 7.25593062 7.375 5.75 C6.20710938 5.31171875 5.03921875 4.8734375 3.8359375 4.421875 C1 3 1 3 0 0 Z " fill="#4D57A0" transform="translate(58,181)"/>
<path d="M0 0 C0.99 0.33 1.98 0.66 3 1 C3.25 3.25 3.25 3.25 3 6 C1.1875 8.0625 1.1875 8.0625 -1 10 C-2.02323436 11.31558703 -3.03126968 12.64377755 -4 14 C-3.36843005 8.94744036 -1.86540627 4.70406799 0 0 Z " fill="#576CB9" transform="translate(161,145)"/>
<path d="M0 0 C1.32 1.65 2.64 3.3 4 5 C1.03312999 6.64826111 -1.65626525 7.44271087 -5 8 C-4.34 6.35 -3.68 4.7 -3 3 C-2.34 3 -1.68 3 -1 3 C-0.67 2.01 -0.34 1.02 0 0 Z " fill="#7580C1" transform="translate(117,183)"/>
<path d="M0 0 C-2.07808677 2.07808677 -3.15929047 2.5305555 -5.875 3.4375 C-9.02226539 4.55907094 -11.4562786 5.77424377 -14 8 C-14.66 7.67 -15.32 7.34 -16 7 C-13.74955401 4.55542608 -11.44198707 2.90097066 -8.5625 1.25 C-7.41974609 0.57710937 -7.41974609 0.57710937 -6.25390625 -0.109375 C-3.66585264 -1.13203743 -2.56366999 -0.95772637 0 0 Z " fill="#5972C3" transform="translate(66,19)"/>
<path d="M0 0 C4.23269578 1.51167706 5.66268097 4.30552799 8 8 C8.556875 8.556875 9.11375 9.11375 9.6875 9.6875 C11 11 11 11 12 14 C8.09833188 12.69944396 6.88146243 10.74371113 4.3125 7.5625 C3.10013672 6.07943359 3.10013672 6.07943359 1.86328125 4.56640625 C0 2 0 2 0 0 Z " fill="#5066B9" transform="translate(143,74)"/>
<path d="M0 0 C4.59467678 0.47250222 6.58211447 2.0901791 9.75 5.375 C10.52859375 6.16648437 11.3071875 6.95796875 12.109375 7.7734375 C14 10 14 10 15 13 C14.34 13 13.68 13 13 13 C11.66796875 11.609375 11.66796875 11.609375 10.1875 9.75 C7.70054716 6.7401182 5.13491709 4.35118782 2 2 C1.34 1.34 0.68 0.68 0 0 Z " fill="#4B62BF" transform="translate(125,100)"/>
<path d="M0 0 C-1.46818668 3.10742423 -3.20025 5.90471739 -5.125 8.75 C-5.93324219 9.94882813 -5.93324219 9.94882813 -6.7578125 11.171875 C-7.16773437 11.77515625 -7.57765625 12.3784375 -8 13 C-9.1484375 9.3125 -9.1484375 9.3125 -7.8125 6.5 C-3.1 0 -3.1 0 0 0 Z " fill="#4D65B9" transform="translate(82,147)"/>
<path d="M0 0 C2.475 0.99 2.475 0.99 5 2 C4.34 2.66 3.68 3.32 3 4 C2.75746187 6.21072977 2.75746187 6.21072977 2.875 8.625 C2.89304688 9.44226563 2.91109375 10.25953125 2.9296875 11.1015625 C2.95289063 11.72804688 2.97609375 12.35453125 3 13 C2.34 13 1.68 13 1 13 C-0.10228696 8.59085217 -0.07654536 4.51617599 0 0 Z " fill="#546AC7" transform="translate(163,105)"/>
<path d="M0 0 C0.66 0.33 1.32 0.66 2 1 C0.42353449 2.32074115 -1.16145531 3.63131224 -2.75 4.9375 C-3.63171875 5.66839844 -4.5134375 6.39929688 -5.421875 7.15234375 C-7.76330955 8.83037185 -9.19661127 9.58735166 -12 10 C-11.34 9.01 -10.68 8.02 -10 7 C-9.34 7 -8.68 7 -8 7 C-7.67 6.01 -7.34 5.02 -7 4 C-4.78406817 2.28945613 -2.53809348 1.24678276 0 0 Z " fill="#5061B9" transform="translate(63,66)"/>
<path d="M0 0 C0.625 2.5625 0.625 2.5625 1 5 C-3 5 -3 5 -6 3 C-6 2.01 -6 1.02 -6 0 C-2.25 -1.125 -2.25 -1.125 0 0 Z " fill="#5272E2" transform="translate(71,18)"/>
<path d="M0 0 C0.99 0 1.98 0 3 0 C2.67 1.65 2.34 3.3 2 5 C2.66 5.33 3.32 5.66 4 6 C3.34 6.66 2.68 7.32 2 8 C-0.125 7.625 -0.125 7.625 -2 7 C-1.42415568 4.61435923 -0.77772405 2.33317216 0 0 Z " fill="#435CBF" transform="translate(120,179)"/>
<path d="M0 0 C0.33 0 0.66 0 1 0 C1.34833144 4.87664009 0.41685712 7.77050005 -2 12 C-2.99 12 -3.98 12 -5 12 C-4.6875 10.0625 -4.6875 10.0625 -4 8 C-3.01 7.67 -2.02 7.34 -1 7 C-1.020625 6.030625 -1.04125 5.06125 -1.0625 4.0625 C-1 1 -1 1 0 0 Z " fill="#556FCD" transform="translate(145,154)"/>
<path d="M0 0 C3.6181282 0.24120855 6.38895322 0.93837199 9.75 2.25 C9.75 2.58 9.75 2.91 9.75 3.25 C4.59828377 3.34038099 -0.16913204 3.09681133 -5.25 2.25 C-3.25 0.25 -3.25 0.25 0 0 Z " fill="#4962BF" transform="translate(98.25,89.75)"/>
<path d="M0 0 C0.66 1.32 1.32 2.64 2 4 C0.68 4.33 -0.64 4.66 -2 5 C-2 5.66 -2 6.32 -2 7 C-3.32 7 -4.64 7 -6 7 C-4.77065985 3.31197956 -3.06140622 2.27643027 0 0 Z " fill="#537AE8" transform="translate(155,165)"/>
<path d="M0 0 C-1.50195666 3.8231624 -3.76713373 5.5556377 -7 8 C-8.0173873 8.98230498 -9.02596117 9.97469597 -10 11 C-10 7.0234755 -8.61988497 5.9109833 -6 3 C-2.48275862 0 -2.48275862 0 0 0 Z " fill="#586ABC" transform="translate(68,101)"/>
<path d="M0 0 C-0.33 0.99 -0.66 1.98 -1 3 C-3.06640625 3.94921875 -3.06640625 3.94921875 -5.5625 4.6875 C-6.38878906 4.93886719 -7.21507813 5.19023437 -8.06640625 5.44921875 C-8.70449219 5.63097656 -9.34257813 5.81273437 -10 6 C-10.33 5.34 -10.66 4.68 -11 4 C-9.5437455 3.32880451 -8.08492133 2.66318193 -6.625 2 C-5.81289062 1.62875 -5.00078125 1.2575 -4.1640625 0.875 C-2 0 -2 0 0 0 Z " fill="#4A5B97" transform="translate(134,183)"/>
<path d="M0 0 C0.33 0 0.66 0 1 0 C1 5.28 1 10.56 1 16 C0.67 16 0.34 16 0 16 C-0.06058594 15.39671875 -0.12117187 14.7934375 -0.18359375 14.171875 C-0.30927734 12.97304687 -0.30927734 12.97304687 -0.4375 11.75 C-0.51871094 10.96109375 -0.59992188 10.1721875 -0.68359375 9.359375 C-0.93046316 7.01353051 -0.93046316 7.01353051 -1.66015625 4.890625 C-2 3 -2 3 0 0 Z " fill="#5871E5" transform="translate(186,96)"/>
<path d="M0 0 C5.03985731 0.44469329 7.37634988 2.71343362 11 6 C10.67 6.66 10.34 7.32 10 8 C9.01 7.34 8.02 6.68 7 6 C5.6696875 5.2575 5.6696875 5.2575 4.3125 4.5 C3.549375 4.005 2.78625 3.51 2 3 C2 2.34 2 1.68 2 1 C1.34 0.67 0.68 0.34 0 0 Z " fill="#5468C7" transform="translate(142,24)"/>
<path d="M0 0 C0.33 0.99 0.66 1.98 1 3 C0.07421875 4.82421875 0.07421875 4.82421875 -1.3125 6.6875 C-1.76238281 7.31011719 -2.21226562 7.93273437 -2.67578125 8.57421875 C-3.11277344 9.04472656 -3.54976562 9.51523438 -4 10 C-4.66 10 -5.32 10 -6 10 C-5.49477778 5.62140745 -2.82172778 3.18348776 0 0 Z " fill="#5568BB" transform="translate(141,165)"/>
<path d="M0 0 C0.66 1.32 1.32 2.64 2 4 C2.66 4 3.32 4 4 4 C4.66 5.65 5.32 7.3 6 9 C5.01 9.495 5.01 9.495 4 10 C3.13619741 8.71475739 2.28419631 7.42157581 1.4375 6.125 C0.96183594 5.40570313 0.48617188 4.68640625 -0.00390625 3.9453125 C-0.33261719 3.30335938 -0.66132813 2.66140625 -1 2 C-0.67 1.34 -0.34 0.68 0 0 Z " fill="#536FCB" transform="translate(21,146)"/>
<path d="M0 0 C1.76462683 3.08809695 2 4.23312136 2 8 C1.34 8 0.68 8 0 8 C-0.66 8.99 -1.32 9.98 -2 11 C-2 9.35 -2 7.7 -2 6 C-1.34 6 -0.68 6 0 6 C-0.2784375 4.7934375 -0.2784375 4.7934375 -0.5625 3.5625 C-0.706875 2.716875 -0.85125 1.87125 -1 1 C-0.67 0.67 -0.34 0.34 0 0 Z " fill="#7B94E7" transform="translate(166,112)"/>
<path d="M0 0 C0.99 0 1.98 0 3 0 C3 3.96 3 7.92 3 12 C2.67 12 2.34 12 2 12 C1.855625 10.7625 1.71125 9.525 1.5625 8.25 C1.21311498 5.43495501 0.79620634 2.7298503 0 0 Z " fill="#6883DD" transform="translate(7,100)"/>
<path d="M0 0 C0.598125 0.165 1.19625 0.33 1.8125 0.5 C4.11344336 1.1114124 4.11344336 1.1114124 7 1 C5.25 2.5625 5.25 2.5625 3 4 C0.75 3.6875 0.75 3.6875 -1 3 C-0.67 2.01 -0.34 1.02 0 0 Z " fill="#4765BC" transform="translate(141,176)"/>
<path d="M0 0 C3.14958831 3.42346555 3.56179109 6.44262737 4 11 C0.85041169 7.57653445 0.43820891 4.55737263 0 0 Z " fill="#5871BE" transform="translate(48,151)"/>
<path d="M0 0 C0.99 0.33 1.98 0.66 3 1 C3 2.65 3 4.3 3 6 C2.01 6.33 1.02 6.66 0 7 C0 4.69 0 2.38 0 0 Z " fill="#566ECB" transform="translate(161,145)"/>
<path d="M0 0 C1.37432457 3.81756824 0.67975039 7.07255329 0 11 C-0.33 11 -0.66 11 -1 11 C-1.33 8.03 -1.66 5.06 -2 2 C-1.34 2 -0.68 2 0 2 C0 1.34 0 0.68 0 0 Z " fill="#697CBC" transform="translate(32,110)"/>
<path d="M0 0 C3.2542015 2.83430453 4.5206753 4.68607774 5 9 C1.7457985 6.16569547 0.4793247 4.31392226 0 0 Z " fill="#5169BD" transform="translate(173,53)"/>
</svg>
